
<svg xmlns="http://www.w3.org/2000/svg" x="0px" y="0px"
	 viewBox="0 0 238 44" style="enable-background:new 0 0 238 44;" xml:space="preserve">
<style type="text/css">
	.wdt-light-logo{fill:#FFFFFF;}
</style>
<path class="wdt-light-logo" d="M225.9,7.9l9.1,25.8l-1.2-0.8l3.6,0.8l-0.1,1.8h-10.4l0.1-1.9c0.9-0.4,2-0.7,3.3-1l-0.4,0.8l-7.8-23.7L221.3,8
	c0.6-0.1,1.4-0.1,2.2-0.2C224.4,7.8,225.1,7.8,225.9,7.9z M224.2,8.1l-8.6,25.7l-0.2-0.8l3.4,0.8l-0.1,1.8H210l0.1-1.8
	c0.5-0.2,1-0.4,1.6-0.6c0.6-0.2,1.2-0.3,1.8-0.4l-1.2,1L221.3,8L224.2,8.1z M216.4,27.7l0.9-2.7h11.8l0.9,2.7H216.4z"/>
<path class="wdt-light-logo" d="M201,35.7l-17.5-24.8l3.1-2.9l17.5,24.8l0.2,2.7C203.3,35.8,202.2,35.8,201,35.7z M183.2,35.1V8.4l3.5,1.6v25
	H183.2z M186.9,12.8l-3.2-1.6L180,9.9l0.1-1.8h6.4L186.9,12.8z M204.3,35.6l-3.5-1.2V8.4h3.5V35.6z M180.1,35.5l0.1-1.8
	c1-0.4,2.1-0.7,3.5-1.1l-0.6,2.1v-3.9h3.5v3.9l-0.5-1.9l4.1,0.8l-0.1,1.8H180.1z M207.3,8.1l-0.1,1.8c-1.1,0.5-2.2,0.8-3.4,1.1
	l0.6-2.1v3.9h-3.5V8.8l0.5,1.9l-3.7-0.8l0.1-1.8H207.3z"/>
<path class="wdt-light-logo" d="M132.9,7.9l9.1,25.8l-1.2-0.8l3.6,0.8l-0.1,1.8h-10.4l0.1-1.9c0.9-0.4,2-0.7,3.3-1l-0.4,0.8l-7.8-23.7L128.3,8
	c0.6-0.1,1.4-0.1,2.2-0.2C131.4,7.8,132.1,7.8,132.9,7.9z M131.2,8.1l-8.5,25.7l-0.2-0.8l3.4,0.8l-0.1,1.8H117l0.1-1.8
	c0.5-0.2,1-0.4,1.6-0.6c0.6-0.2,1.2-0.3,1.8-0.4l-1.2,1L128.3,8L131.2,8.1z M123.4,27.7l0.9-2.7h11.8l0.9,2.7H123.4z"/>
<path class="wdt-light-logo" d="M84,35.7L76.4,9.8l1.3,0.9L74,9.9l0.1-1.8h10.6l-0.1,1.8c-0.9,0.4-2.1,0.7-3.6,0.9l0.3-0.8l6.2,23.4l0.6,2.2
	c-0.6,0.1-1.2,0.1-2,0.2C85.4,35.8,84.7,35.8,84,35.7z M88.2,35.6l-2.8-0.4l7.4-26.5l3.1,0L88.2,35.6z M99.8,35.7l-6.9-25.2
	l-0.2-1.8c0.5-0.1,1.2-0.1,1.9-0.2c0.8,0,1.4,0,2,0l6.7,24.9l0.6,2.2c-0.6,0.1-1.2,0.1-2,0.2C101.2,35.8,100.5,35.8,99.8,35.7z
	 M104,35.6l-2.8-0.4l6.9-25.3l0.3,0.8l-3.7-0.8l0.1-1.8h8.9l-0.1,1.8c-0.4,0.2-0.9,0.4-1.5,0.6c-0.6,0.2-1.2,0.3-1.9,0.4l1.2-1
	L104,35.6z"/>
<path class="wdt-light-logo" d="M60.5,36c-3.3,0-6-0.8-8.1-2.3c-0.4-2.7-0.5-5-0.3-6.9h2l3,7L55,31.7c2,1.1,4.1,1.7,6.2,1.7
	c1.6,0,2.9-0.4,3.8-1.1c0.9-0.7,1.3-1.8,1.3-3.1c0-1.1-0.3-2-1-2.7c-0.7-0.7-1.8-1.3-3.3-1.8l-2.7-0.9c-4.7-1.5-7-4.1-7-7.9
	c0-2.5,0.9-4.5,2.6-6c1.7-1.5,4.1-2.2,7.1-2.2c2.6,0,5,0.6,7.2,1.7c0.3,2.2,0.4,4.2,0.3,6h-2.1l-2.4-5.7l2.7,2.3
	c-2.2-1.1-4.2-1.7-6.2-1.7c-3,0-4.5,1.3-4.5,4c0,1.2,0.4,2.1,1.1,2.9c0.7,0.7,1.9,1.4,3.6,1.9l2.7,0.9c4.6,1.4,6.9,4,6.9,7.8
	c0,2.6-0.9,4.6-2.8,6.1C66.2,35.2,63.7,36,60.5,36z"/>
<path class="wdt-light-logo" d="M33.7,29.8c-1.4,2.6-2.2,6-4.8,6c-2.6,0-3-2.7-5.1-3.8c-0.2-0.1-0.3-0.2-0.5-0.2c2.8-0.7,5.1-2.5,6.6-4.9
	c-0.1,1,0,2.1,0,3c0,1.7-0.7,3.3-1.8,4.5c0,0.2,0.2,0.3,0.4,0.3c0.2,0,0.3-0.2,0.4-0.3c0.9-1.1,1.5-2.4,1.6-3.8c0.1-0.7,0-1.5,0-2.2
	c0.1-0.9,0.4-2.1,1.3-2.6c2.3-1.1,3.8,0.6,6.7-0.9c0.8-0.4,1.4-1.1,1.8-1.9c0,0,0-0.1,0-0.1c0.3-0.6,0.5-1.2,0.5-1.8
	c0,0,0-0.1,0-0.1c0-0.2,0-0.3,0-0.5c0,0,0-0.1,0-0.1c-0.2-4.3-5.1-9.3-3.5-13.3c0,0-5.8,2.9-3.1,7.4c1.5,2.6,4.1,4.9,2.8,7.2
	c-1.3,2.3-3.8,1.3-5.9,2.5c-0.2,0.1-0.3,0.2-0.4,0.3c0.3-0.9,0.4-1.9,0.4-2.9c0-1.9-0.5-3.7-1.4-5.2c0.8,0.6,1.8,1,2.6,1.5
	c1.4,0.9,2.5,2.2,3,3.8c0.1,0.1,0.4,0,0.4-0.2c0.1-0.2,0-0.3-0.1-0.5c-0.5-1.3-1.4-2.5-2.5-3.3c-0.6-0.4-1.3-0.7-1.9-1.1
	c-0.8-0.5-1.6-1.4-1.6-2.4c0.2-2.6,2.5-3,2.6-6.2c0-0.9-0.3-1.8-0.7-2.5c0,0,0-0.1-0.1-0.1c-0.3-0.5-0.8-1-1.3-1.3
	c0,0-0.1,0-0.1-0.1c-0.1-0.1-0.3-0.2-0.4-0.2c0,0-0.1,0-0.1,0C26,1.6,19.3,3.4,16.6,0c0,0-0.4,6.5,4.9,6.4c3,0,6.3-1.1,7.6,1.2
	c1.4,2.3-0.8,4-0.8,6.3c0,0.2,0,0.4,0.1,0.5c-1.9-2-4.6-3.2-7.5-3.2c0.9-0.4,1.8-1,2.6-1.5c1.4-0.8,3.2-1.1,4.8-0.7
	c0.2-0.1,0.2-0.3,0.1-0.4c-0.1-0.1-0.3-0.2-0.5-0.2C26.5,8,25,8.2,23.8,8.8c-0.7,0.3-1.3,0.7-1.9,1.1c-0.8,0.4-2.1,0.7-2.9,0.1
	c-2.1-1.5-1.3-3.6-4.1-5.4C14.1,4.2,13.2,4,12.3,4c0,0-0.1,0-0.1,0c-0.6,0-1.2,0.2-1.8,0.4c0,0-0.1,0-0.1,0C10.2,4.6,10,4.7,9.9,4.7
	c0,0-0.1,0-0.1,0.1c-3.6,2.3-5.5,9-9.8,9.7c0,0,5.4,3.5,8-1.1c1.4-2.6,2.2-6,4.8-6c2.6,0,3,2.7,5.1,3.8c0.2,0.1,0.3,0.2,0.5,0.2
	c-2.8,0.7-5.1,2.5-6.6,4.9c0.1-1,0-2.1,0-3c0-1.7,0.7-3.3,1.8-4.5c0-0.2-0.2-0.3-0.4-0.3c-0.2,0-0.3,0.2-0.4,0.3
	c-0.9,1.1-1.5,2.4-1.6,3.8c-0.1,0.7,0,1.5,0,2.2c-0.1,0.9-0.4,2.1-1.3,2.6c-2.3,1.1-3.8-0.6-6.7,0.9c-0.8,0.4-1.4,1.1-1.8,1.9
	c0,0,0,0.1,0,0.1c-0.3,0.6-0.5,1.2-0.5,1.8c0,0,0,0.1,0,0.1c0,0.2,0,0.3,0,0.5c0,0,0,0.1,0,0.1c0.2,4.3,5.1,9.3,3.5,13.3
	c0,0,5.8-2.9,3.1-7.4c-1.5-2.6-4.1-4.9-2.8-7.2c1.3-2.3,3.8-1.3,5.9-2.5c0.2-0.1,0.3-0.2,0.4-0.3c-0.3,0.9-0.4,1.9-0.4,2.9
	c0,1.9,0.5,3.7,1.4,5.2c-0.8-0.6-1.8-1-2.6-1.5c-1.4-0.9-2.5-2.2-3-3.8c-0.1-0.1-0.4,0-0.4,0.2c-0.1,0.2,0,0.3,0.1,0.5
	c0.5,1.3,1.4,2.5,2.5,3.3c0.6,0.4,1.3,0.7,1.9,1.1c0.8,0.5,1.6,1.4,1.6,2.4c-0.2,2.6-2.5,3-2.6,6.2c0,0.9,0.3,1.8,0.7,2.5
	c0,0,0,0.1,0.1,0.1c0.3,0.5,0.8,1,1.3,1.3c0,0,0.1,0,0.1,0.1c0.1,0.1,0.3,0.2,0.4,0.2c0,0,0.1,0,0.1,0c3.8,2,10.6,0.3,13.3,3.6
	c0,0,0.4-6.5-4.9-6.4c-3,0-6.3,1.1-7.6-1.2c-1.4-2.3,0.8-4,0.8-6.3c0-0.2,0-0.4-0.1-0.5c1.9,2,4.6,3.2,7.5,3.2
	c-0.9,0.4-1.8,1-2.6,1.5c-1.4,0.8-3.2,1.1-4.8,0.7c-0.2,0.1-0.2,0.3-0.1,0.4c0.1,0.1,0.3,0.2,0.5,0.2c1.4,0.2,2.8,0.1,4.1-0.5
	c0.7-0.3,1.3-0.7,1.9-1.1c0.8-0.4,2.1-0.7,2.9-0.1c2.1,1.5,1.3,3.6,4.1,5.4c0.8,0.5,1.7,0.7,2.5,0.6c0,0,0.1,0,0.1,0
	c0.6,0,1.2-0.2,1.8-0.4c0,0,0.1,0,0.1,0c0.1-0.1,0.3-0.1,0.4-0.2c0,0,0.1,0,0.1-0.1c3.6-2.3,5.5-9,9.8-9.7
	C41.7,28.7,36.3,25.2,33.7,29.8L33.7,29.8z M11.1,21.6c0-5.4,4.4-9.7,9.7-9.7s9.7,4.4,9.7,9.7s-4.4,9.7-9.7,9.7S11.1,27,11.1,21.6z"
	/>
<path class="wdt-light-logo" d="M21.9,27.9c3.5-0.6,5.8-3.8,5.2-7.3c-0.6-3.5-3.8-5.8-7.3-5.2c-3.5,0.6-5.8,3.8-5.2,7.3
	C15.1,26.1,18.4,28.4,21.9,27.9z"/>
<path class="wdt-light-logo" d="M158.7,9.7c2.1,0.4,4.7,2.1,4.7,6.7c0,3-1.1,4.7-2.2,5.5c-0.5,0.3-0.9,0.5-1.6,0.6v2.1c0.5,0.6,2.2,3.1,3.6,5.1
	c2.1,2.8,3.5,4.6,5,5.4c1,0.5,1.9,0.7,3.9,0.7h3.5c0.4,0,0.7-0.1,0.7-0.4c0-0.2-0.1-0.3-0.4-0.3c-0.3,0-0.6,0-1-0.1
	c-0.6-0.1-2.1-0.4-4.1-2.5c-2.2-2.3-4.7-5.6-8-9.7c3.7-3,4.9-5.5,4.9-8.3c0-2.5-1.5-4.3-2.5-5c-1.9-1.3-4.3-1.6-6.6-1.6V9.7z
	 M151,32.9c-0.1,1.1-0.3,1.9-1.1,2c-0.3,0.1-0.8,0.1-1.3,0.1c-0.4,0-0.6,0.1-0.6,0.3c0,0.3,0.3,0.4,0.7,0.4c1.5,0,3.8-0.1,4.5-0.1
	c0.6,0,3.3,0.1,5.4,0.1c0.5,0,0.7-0.1,0.7-0.4c0-0.2-0.1-0.3-0.4-0.3c-0.4,0-1.3-0.1-1.8-0.1c-1.1-0.1-1.3-1-1.4-2
	c-0.4-3.3-0.2-7.8-0.2-11.4v-2.8l-4.3,2.3C151.3,24.9,151.4,29.3,151,32.9L151,32.9z"/>
<path class="wdt-light-logo" d="M158,7.9h-9.3v0.7h9.3V7.9z"/>
<path class="wdt-light-logo" d="M157.5,9h-8.2v0.7h8.2V9z"/>
<path class="wdt-light-logo" d="M151.8,11.4c0,0.3-0.1,0.7-0.4,0.9h0v0c-0.2,0.2-0.5,0.4-0.9,0.4s-0.7-0.1-0.9-0.4v0c-0.2-0.2-0.4-0.5-0.4-0.9
	c0-0.3,0.1-0.7,0.4-0.9v0c0.2-0.2,0.5-0.4,0.9-0.4h5.6c0.3,0,0.7,0.1,0.9,0.4l0,0c0.2,0.2,0.4,0.5,0.4,0.9c0,0.3-0.1,0.7-0.4,0.9h0
	v0c-0.2,0.2-0.5,0.4-0.9,0.4c-0.3,0-0.7-0.1-0.9-0.4v0c-0.2-0.2-0.4-0.5-0.4-0.9h0.7c0,0.2,0.1,0.3,0.2,0.4l0,0
	c0.1,0.1,0.2,0.2,0.4,0.2c0.2,0,0.3-0.1,0.4-0.2l0,0c0.1-0.1,0.2-0.2,0.2-0.4c0-0.2-0.1-0.3-0.2-0.4l0,0c-0.1-0.1-0.2-0.2-0.4-0.2
	h-5.6c-0.2,0-0.3,0.1-0.4,0.2l0,0c-0.1,0.1-0.2,0.2-0.2,0.4c0,0.2,0.1,0.3,0.2,0.4l0,0c0.1,0.1,0.2,0.2,0.4,0.2
	c0.2,0,0.3-0.1,0.4-0.2l0,0c0.1-0.1,0.2-0.2,0.2-0.4H151.8z"/>
<path class="wdt-light-logo" d="M154.8,12.6V18l0.7-0.4v-5H154.8z"/>
<path class="wdt-light-logo" d="M153.6,11.2v7.4l0.7-0.4v-7.1H153.6z"/>
<path class="wdt-light-logo" d="M152.4,11.2v8.1l0.7-0.4v-7.7H152.4z"/>
<path class="wdt-light-logo" d="M151.2,12.6v7.3l0.7-0.4v-7H151.2z"/>
</svg>
